<svg xmlns="http://www.w3.org/2000/svg" width="49" height="40" viewBox="0 0 49 40">
    <defs>
        <linearGradient id="a" x1="20%" y1="0%" y2="100%">
            <stop offset="0%" stop-color="#EB6635"/>
            <stop offset="50%" stop-color="#B31E36"/>
            <stop offset="100%" stop-color="#3422FF"/>
        </linearGradient>
    </defs>
    <path fill="url(#a)" fill-rule="evenodd" d="M45.632 8.551c.589.61 1.917 1.44-.859 5.095-.614-.389-1.593 4.018-7.73 8.492-.206-.293.598.105.859 0 .543-.293-1.85 1.591-5.153 3.397-5.312 1.91-2.167 4.19 0 5.944.89.406 4.98 2.705 7.73 2.547-.112-.067-.619.4-1.718 0 .488.451 1.833 1.626 2.577 1.698.497.032-.901.602-2.577.85.802-.472 1.903.72 2.577.849.182-.112-1.006.493-2.577 0 .82.407 1.431 2.152 2.577 2.547-.342-.24-1.408 1.022-6.013-2.547-.375-.768-3.625-.475-4.294-.85.67.375-6.442.514-9.448-.849-2.83-1.057-7.216-5.394-9.448-7.642-2.346-1.951-3.674-3.558-5.154-3.397-1.316-1.06-3.343-.662-6.012-3.396l-.86-.85h2.578c-.342-.546 2.943-2.965 5.153 0 2.193 1.873 2.962 2.65 4.295 1.699.712.381-.424-1.969-4.295-5.095-2.891-2.49-2.472-3.216-2.577-5.095-.122.1-1.1-4.376-4.294-7.642-2.52-3.733.537-2.575 1.718-1.699.62.973 17.726 11.98 19.755 20.38-.544.466 3.964-.848 6.87-7.642-.792.78.309-.792 1.719-1.699C33.378 12.082 46.588 3.563 46.491.06c.638.306 3.067-1.232 1.718 2.547-.765.04 3.603-.548-2.577 5.944z"/>
</svg>
